<?xml version="1.0" encoding="utf-8"?>
<!-- Generator: Adobe Illustrator 19.0.0, SVG Export Plug-In . SVG Version: 6.00 Build 0)  -->
<svg version="1.1" id="Layer_1" xmlns="http://www.w3.org/2000/svg" xmlns:xlink="http://www.w3.org/1999/xlink" x="0px" y="0px"
	 viewBox="0 0 323.9 356.3" style="enable-background:new 0 0 323.9 356.3;" xml:space="preserve">
<style type="text/css">
	.st0{fill:#FFFFFF;}
	.st1{fill:#CC0033;}
</style>
<g>
	<path class="st0" d="M316.1,102c-10.7,2.1-20.9,4.2-31.2,6.2c-10.9,2.2-21.6,5-32.1,8.4c-6.7,2.2-13.3,4.7-20.1,6.4
		c-2.9,0.7-5.4,1.9-5.9,4.3c-0.8,3.8-0.8,8.4,2.8,10.8c6.3,4.2,12.3,8.6,18.1,13.5c6.4,5.5,13.9,2.9,21.1,1.2
		c5.9-1.3,11.8-2.7,17.8-0.6c1.4,0.5,2.8-0.3,4.2-0.8c17-6.3,23.4,1.5,29.7,15c4.6,10,4.7,20.7,0.2,31.1c-2.9,6.8-7.5,11.6-15,12.6
		c-3.3,0.4-2.8,2.4-3,4.6c-1.4,13.7-2.9,27.4-6.7,40.8c-3.1,10.9-7.8,21.1-14,30.6c-2.4,3.7-2,6.8-0.6,10.8
		c3.6,10.9,8.4,21.4,11.6,32.5c0.8,2.9-0.6,3.3-2,3.7c-22.3,6.8-44.4,14.1-67.5,18.3c-15,2.8-30,6-45.3,4.6
		c-13.4-1.2-26.8-1.9-40.1-3.6c-12.6-1.6-24.9-3.8-37.4-6.1c-12.5-2.3-24.6-6-36.8-9.4C47.7,332.3,32,326,16.3,320
		c-4.9-1.9-8.9-5.3-12.5-9.2c-1.7-1.9-1.4-3.2,0.4-4.5c7.7-5.7,15-11.9,21.7-18.7c14.3-14.5,23.7-31.6,26.6-51.8
		c0.9-6.3,1-12.8,1.1-19.2c0.1-8.9,2.2-17.3,5.2-25.5c0.4-1.2,1.8-2.4,0.5-3.5c-1-0.9-2.4-0.4-3.7,0.1c-6,2.6-12.3,4.7-18.1,7.6
		c-3.7,1.8-3.8,0.2-3.7-2.6c0.7-16,4.3-31.3,9.5-46.3c2.9-8.3,5.8-16.5,5.6-25.5c-0.3-9.3-3.1-17.8-7.7-25.7
		C29.8,75.8,20,55.7,11.8,34.8C7.7,24.4,3.9,13.9,0.6,3.2c-0.9-2.9-1.3-3.5,2.4-3c14,1.9,27.7,5,41.5,7.6
		c18.1,3.3,35.8,8.1,53.3,13.6c12.5,3.9,24.9,8.3,37,13.6c16.7,7.3,33.5,13.7,51.7,16.5c21.8,3.4,43.1,8.9,64.3,14.9
		c10.8,3.1,21.4,6.9,32,10.6c9.2,3.2,16.5,9.5,23.6,15.8C309.5,95.5,313.5,97.3,316.1,102z"/>
	<path class="st1" d="M158.8,334.4c2.7-7.2,8-12.2,12.2-17.8c10.9-14.1,18.4-29.7,22.6-46.9c1.2-4.7,5.3-6.4,8.6-8.7
		c7.3-5.1,13.8-10.9,16.7-19.6c4.5-13.3-6.9-28.4-20.8-29.2c-20.3-1.1-40.7-1.8-60.4-7.7c-4.7-1.4-8.8-4.1-12.7-6.7
		c-2.3-1.5-4.3-1.2-6.5-1.4c-1.8-0.2-2.7,1.3-3.5,2.4c-0.8,1.2,0.8,1.9,1.5,2.8c9.8,11.9,23,16.3,37.7,17.8c9.4,0.9,18.7,3,28.3,3
		c3.1,0,3.3,2.4,3.2,4.4c-0.3,11.7,0.1,23.3-1.6,35.1c-2,13.2-6.1,25.4-12.5,36.8c-6,10.6-13.8,20-23.8,27
		c-5.5,3.9-11.7,0.8-17.5-1.1c-12-4-18.8-13.9-26.4-22.8c-6.7-7.8-12.8-16.1-18.7-24.5c-8.4-11.8-13.3-25-14.4-39.5
		c-1.6-20.1,3.4-39.2,8.5-58.2c1.6-5.8,2-12,7.2-16.5c5.5-4.8,10.7-6.4,17.4-3.1c11.2,5.6,22.9,10.2,34.9,13.2
		c10.9,2.7,21.9,5.2,33.2,6.4c13.1,1.4,26.2,2.8,39.3,2.8c5.8,0,11.3-1,16.6-3c0.8-0.3,1.7-0.2,2.1-1c1-1.7,4.5-2.2,3.1-4.8
		c-1.6-2.9-4-0.2-5.4,0.6c-4.4,2.3-4.9,0.7-4-3.2c1-4.7,2-9.4,3-14.2c0.3-1.2,0.5-2.9,2.4-1.7c6.7,4.2,14,8.2,16.2,16.5
		c1.1,4.4,1.2,9.4,0.3,13.8c-2.1,10.1-2.7,20.4-1.6,30.5c2,17.2,5.1,34.2,9.9,50.9c4.6,15.6,12.1,30,19.3,44.5
		c1.3,2.7,2.3,4.1-1.9,5.4c-16.8,5.6-33.8,10.5-51.3,13.8c-15.5,3-31.1,3.5-46.7,4.9C168.5,335.7,163.9,333.6,158.8,334.4z"/>
	<path class="st1" d="M59.3,90.4c-7.5-7.8-10-10.9,3.2-23.2c-3.8-1.1-6.4-0.4-9.8,2.6c-4.2,3.8-4.1,3.4-7.3-1
		c-4.9-6.5-5-12.3,1.9-17.7c-3.1-1.7-6-0.5-7.3,0.8c-3,2.8-3.5,0.4-4.2-1.5c-3.1-7.4-6.2-14.8-9-22.3c-0.8-2.1-1.9-4-2.7-6.1
		c-0.4-1-0.5-2.5,0-3.3c0.6-1.1,2.1-0.5,3.2-0.2c18,5,36.2,9,54,14.6c18.3,5.7,35.7,13.5,53.3,21.1c11.9,5.1,24.2,8.4,37.1,10.3
		c15.3,2.2,30.4,5.7,45.5,9c13.7,3,27.3,6.2,40.8,9.9c9.4,2.6,18.5,6.1,27.7,9.4c0.9,0.3,2.4,0.4,2.8,2.4
		c-10.5,2.4-20.9,4.9-31.4,7.2c-9.9,2.1-19.8,4.6-29.7,7c-20.8,5-41.3,10.8-61.7,17.1c-26.5,8.2-52.5,17.7-77.8,29.3
		c-10.6,4.9-21.5,9.2-31.6,15.2c-1,0.6-3,2.3-4.2,0.9c-1.1-1.3,0.2-2.9,0.8-4.5c4.6-13,12.5-24.6,15-38.5c1.6-9,1.4-17.6-2.8-25.7
		c-1.4-2.7-1.6-5,0.4-7.1c6.6-7.1,12.7-14.7,21.1-21.5c-6.5-0.7-11.5,1.1-16,3.9C65.8,81.4,62.5,85.9,59.3,90.4z"/>
	<path class="st1" d="M289.7,200.1c0.5,26.4-6.2,48.2-16.4,69.1c-0.8,1.7-1.7,4.2-3.9,3.8c-1.5-0.3-1.7-2.8-2.2-4.5
		c-4.1-14.5-9.7-28.6-12.2-43.5c-2-11.8-2-23.8-0.6-35.9c0.7-6.2,1.9-12.4,1.2-18.8c-0.3-2.8,0-4.3,3.7-4.4
		c4.5-0.1,8.9-1.3,13.3-2.4c5.9-1.4,9.6,0.9,12.1,6.6C289.6,180.7,289.9,191.7,289.7,200.1z"/>
	<path class="st1" d="M118.6,329.6c-10.8-1.3-20.8-3.3-30.7-5.6c-17.5-4.1-34.9-8.7-51.6-15.7c-0.3-0.1-0.7,0.1-1-0.1
		c-2.2-1.1-5.4-1.7-6.2-3.4c-1.4-3,2.7-3.4,4.3-4.8c12.9-11.5,22.6-25.4,31-40.4c0.7-1.2,1.1-2.7,2.6-2.4c1.1,0.2,1.4,1.5,1.7,2.7
		c5.1,18.1,14,33.8,27.9,46.7c7.1,6.5,13.2,14,20.8,20.1C118,327.2,118.1,328.2,118.6,329.6z"/>
	<path class="st1" d="M174.8,143.3c0.1,4-0.5,9-3.8,13.8c-1.6,2.4-3.9,3.5-5.8,3.7c-1.8,0.3-3-2.7-3.5-4.7c-1.5-5.6-2.8-11.2-4-16.8
		c-0.7-3.5,0-6.2,4.2-6.7c1.1-0.1,2.1-0.8,3.2-1.1c8.6-2.5,9.7-1.7,9.7,7.4C174.8,139.8,174.8,140.8,174.8,143.3z"/>
	<path class="st1" d="M215.7,132.6c0.6,4.1-0.3,9.1-2.1,13.8c-0.5,1.4-0.8,3.5-2.7,3.8c-2.2,0.3-2.4-1.9-3.1-3.3
		c-3.4-6.9-3.5-14.4-3.3-21.9c0.1-1.8,6.4-5.3,9-4.7c2.7,0.6,2,3,2,4.8C215.8,127.3,215.7,129.4,215.7,132.6z"/>
</g>
</svg>
