<?xml version="1.0" encoding="utf-8"?>
<!-- Generator: Adobe Illustrator 19.0.0, SVG Export Plug-In . SVG Version: 6.00 Build 0)  -->
<svg version="1.1" id="Capa_1" xmlns="http://www.w3.org/2000/svg" xmlns:xlink="http://www.w3.org/1999/xlink" x="0px" y="0px"
	 viewBox="-257 17.5 765 766.5" style="enable-background:new -257 17.5 765 766.5;" xml:space="preserve">
<style type="text/css">
	.st0{fill:none;stroke:#CCFF00;stroke-width:40;stroke-miterlimit:10;}
	.st1{fill:#CCFF00;}
</style>
<circle class="st0" cx="125.5" cy="400.8" r="360"/>
<g>
	<path class="st1" d="M-53,371c0-62.6,0-125.3,0-187.9c0-9.5,2.1-18.2,10.2-24.3c5-3.8,10.7-5,16.9-5c70.6,0,141.3,0,211.9,0
		c31.3,0,62.6,0,94,0c14.7,0,24,7.9,25.3,22.7c1.6,18.9,0.6,38,0.6,56.9c0.1,91.5,0,182.9,0,274.4c0,10.2,0,20.3,0,30.5
		c0,6.4-0.4,6.8-6.8,6.8c-50,0-100,0-150,0c-52.2,0-104.3-0.1-156.4,0.2c-15.8,0.1-29.5,6.3-40.8,17.4c-1.1,1.1-1.9,3.3-3.8,2.4
		c-1.7-0.8-1-3-1-4.6c0-51,0-102-0.1-153C-53,395.3-53,383.2-53,371C-53,371-53,371-53,371z M127.9,305.2
		C127.9,305.2,127.9,305.3,127.9,305.2c-5.5,0-11,0.1-16.5,0c-2.4,0-4.1,0.6-5.3,2.9C98,323.6,89.7,339,81.5,354.4
		c-1.2,2.3-1.1,4.3,0.1,6.6c8.3,15.4,16.6,30.8,24.8,46.2c1.3,2.4,3.1,3.6,6,3.6c10.3-0.1,20.7-0.1,31,0c3.2,0,5.2-1.1,6.7-4
		c7.7-14.8,15.5-29.5,23.5-44.1c1.8-3.3,1.8-5.9,0-9.2c-7.2-13-14.5-25.9-21-39.2c-3.4-7.1-7.8-10.5-15.7-9.2
		C133.9,305.6,130.9,305.2,127.9,305.2z M23.8,419.7c1.3-0.2,1.6-1,2-1.7c10.2-19.2,20.5-38.5,30.8-57.7c1.3-2.4,0.7-4.4-0.5-6.5
		c-9.4-17.4-18.8-34.9-28.2-52.3c-0.8-1.5-1.2-4-3.2-4c-1.6,0-2.1,2.4-2.9,3.8C7.8,327.2,3.9,354.6,9.6,383.4
		C12.1,396.4,16.7,408.6,23.8,419.7z M247.7,357.9c-0.3-3.7-0.5-8.5-1-13.3c-1.9-15.5-6.5-30.2-14.1-43.9c-1.3-2.3-2.4-3.7-4.2-0.3
		c-9.5,18.1-19.1,36.2-28.7,54.2c-1.3,2.4-1.4,4.5,0,7c9.6,17.7,19.1,35.5,28.6,53.2c0.7,1.2,1.1,3.2,2.8,3.1c1.6-0.1,2.1-2,2.7-3.3
		C243,397.3,247.2,378.6,247.7,357.9z M-26.7,252.1c8.1-8.4,15.3-16.2,22.9-23.7c2.7-2.7,3.6-4.8,1.9-8.6c-2.5-5.9-0.9-11.6,3.6-16
		c4.5-4.4,10.3-5.7,15.6-2.7c4.3,2.4,6.1,0.8,8.7-2c3.7-4,7.6-7.9,11.6-11.7c3.8-3.6,7.9-7,12.1-10.7c-1.8-1.1-2-1.4-2.3-1.4
		c-21.5,0-43-0.2-64.5,0.1c-7.8,0.1-11,3.9-11,11.8c-0.1,18.7,0,37.3,0,56C-27.9,245.6-28.5,248.1-26.7,252.1z M48.1,518.9
		c-8.3-8.3-16.5-16.4-24.5-24.5c-1.7-1.8-3.1-1-4.8-0.1c-6.5,3.2-12.4,2.6-17.1-1.8c-4.6-4.3-6.1-10.7-3.3-16.9
		c1.5-3.2,0.7-5.1-1.6-7.3c-6.6-6.3-13-12.9-19.6-19.2c-1.3-1.3-2.4-3.2-5.1-3.5c0,2.3,0,4.3,0,6.2c0,18.5,0,36.9,0,55.4
		c0,9.8,3,12.9,12.7,13c19.5,0,38.9,0,58.4,0C44.6,520,46.2,520.4,48.1,518.9z M279.6,250.9c0.4-0.2,0.9-0.4,1.3-0.5
		c0-1.6,0-3.3,0-4.9c0-19.2,0-38.3,0-57.5c0-9.8-3-12.8-12.8-12.8c-19,0-38,0-57,0c-1.6,0-3.3-0.6-5.9,1.6
		c6.8,6.4,13.4,12.6,20,18.9c1.9,1.8,3.8,3.7,5.7,5.6c1.5,1.5,3,1,4.6,0.2c6.4-3.2,12.3-2.3,17.5,2.6c4.8,4.6,5.4,10.3,1.9,17.9
		c-0.8,1.8-0.9,3,0.5,4.4C263.5,234.6,271.5,242.8,279.6,250.9z M206,519.1c2.1,1.2,3.6,0.9,5,0.9c19.1,0,38.3,0,57.4,0
		c10.3,0,12.4-2.2,12.5-12.7c0-19.1,0-38.3,0-57.4c0-1.5,0.8-3.3-1.1-4.6c-8.2,8.1-16.3,16.2-24.5,24.2c-1.4,1.4-1.5,2.6-0.6,4.4
		c3.7,7.5,3.1,12.9-1.7,17.8c-4.8,4.9-10.2,5.6-18.2,2c-1.6-0.7-2.7-0.9-4,0.4C222.7,502.4,214.5,510.6,206,519.1z M122.3,479.6
		c0.7-1.5-0.1-2.2-0.6-3.1c-7.4-13.8-15-27.5-22.2-41.4c-1.9-3.6-4-5-8.1-5c-18.5,0.2-37,0.1-55.4,0.1c-1.5,0-3.3-0.7-5,1.1
		C54.7,460.5,84.7,477.2,122.3,479.6z M134.2,478.8c0.3,0.2,0.4,0.4,0.5,0.4c35.6-2.3,64.2-18.1,86.8-45.2c0.7-0.8,2.1-1.6,1.2-2.9
		c-0.7-1.1-2.1-0.7-3.2-0.7c-18.8,0-37.6,0-56.5-0.1c-3.1,0-4.4,1.7-5.6,4c-6.6,12.5-13.4,24.9-20,37.4
		C136.2,473.9,134.5,476.1,134.2,478.8z M65,285.8C65,285.8,65,285.7,65,285.8c9,0,18-0.1,27,0c3,0,4.9-0.8,6.3-3.6
		c5.6-10.8,11.5-21.4,17-32.3c1.6-3.2,5.9-7.2,4.2-9.5c-2.3-3.1-7.4-0.7-11.2-0.1c-29.5,4.7-53.7,19.1-73.2,41.6
		c-0.8,0.9-2.4,2-1.4,3.3c0.5,0.6,2.1,0.6,3.2,0.6C46.3,285.8,55.6,285.8,65,285.8z M221.5,285.3c0.1-1.9-1.2-2.8-2.1-3.9
		c-11.3-13.2-24.7-23.7-40.4-31.1c-12.7-6.1-26.1-9.9-40.2-11.1c-3.6-0.3-4.5,0.7-2.6,4.1c6.8,12.4,13.6,24.8,20,37.4
		c2.1,4.1,4.7,5.2,9.1,5.1c16-0.2,31.9-0.1,47.9-0.1C215.9,285.7,218.7,286.2,221.5,285.3z M69,410.7c4.7,0,9.3,0,14,0
		c2.6,0,3.3-0.8,1.9-3.2c-4.8-8.7-9.4-17.6-14.1-26.4c-1.3-2.4-2.3-2.5-3.6,0c-4.6,8.8-9.3,17.6-14,26.4c-1.4,2.5-0.7,3.2,2,3.2
		C59.7,410.7,64.3,410.7,69,410.7z M186.8,337.9c5.6-10.5,10.7-20,15.8-29.4c1.4-2.6,0-3.2-2.3-3.2c-9.1,0-18.3,0.1-27.4,0
		c-3,0-2.9,1.3-1.8,3.4C176.1,318,181.1,327.4,186.8,337.9z M187.1,410.7c4.3,0,8.6,0,12.9,0c2.5,0,4-0.6,2.4-3.4
		c-4.6-8.6-9.3-17.2-13.9-25.8c-1-1.9-2.1-1.9-3.2,0.1c-4.6,8.6-9.2,17.3-13.8,25.9c-1.3,2.4-0.5,3.3,2.1,3.3
		C178.1,410.7,182.6,410.7,187.1,410.7z M84.9,307.2c0.1-2.6-1.9-1.9-3.1-1.9c-8.5-0.1-17,0-25.5-0.1c-3.5,0-4.1,1.2-2.5,4.2
		c4.5,8.2,8.9,16.4,13.3,24.6c1.7,3.2,2.7,1.9,3.9-0.3c4.3-8.3,8.7-16.5,13.1-24.7C84.3,308.4,84.6,307.8,84.9,307.2z M128.3,447.9
		c3-6.2,6.7-10.9,8.4-16.7c-4.4-2.2-9.1-0.3-13.6-1c-0.3,0-0.7,0-1,0c-2,0.1-2.9,0.9-1.9,2.8C122.7,437.7,125.3,442.3,128.3,447.9z
		 M127.4,285.8c9.5-0.1,9.6-0.1,5.2-8.2c-1.5-2.8-2.1-7.6-5.3-7.7c-2.3,0-3.4,4.8-4.9,7.5C117.9,285.8,118,285.8,127.4,285.8z"/>
	<path class="st1" d="M146.4,650.3c-50,0-100,0.1-150,0c-15.3,0-28.4-5.4-39.6-16.3c-13.1-12.7-14.2-45.6,3.4-59.7
		c11.4-9.1,24.2-13.3,38.4-13.3c99.2-0.1,198.3-0.1,297.5-0.1c9.9,0,10,0,9.9,9.9c-0.1,12.2,1,11.1-11,11.2
		c-12.7,0.1-12.7,0-12.7,12.6c0,4.3-0.2,8.7,0,13c0.3,4.4-1.4,5.8-5.8,5.8c-24.3-0.2-48.7,0-73,0c-63.3,0-126.7,0-190,0
		c-15.7,0-23.9-7.8-24.8-23.6c-0.3-5.3-0.8-5.6-5.4-3.1c-7.1,3.8-12,8.9-12.4,17.8c-0.5,9.8,3.6,16.2,12,20.5
		c6.5,3.4,13.4,4.9,20.7,4.9c98,0,196,0,294,0c8.4,0,8.4,0,8.4,8.6c-0.1,14,1.2,11.8-12,11.9C244.7,650.3,195.6,650.3,146.4,650.3z"
		/>
</g>
</svg>
