<?xml version="1.0" encoding="utf-8"?>
<!-- Generator: Adobe Illustrator 19.0.0, SVG Export Plug-In . SVG Version: 6.00 Build 0)  -->
<svg version="1.1" id="Layer_1" xmlns="http://www.w3.org/2000/svg" xmlns:xlink="http://www.w3.org/1999/xlink" x="0px" y="0px"
	 viewBox="-139 -100 1000 1000" style="enable-background:new -139 -100 1000 1000;" xml:space="preserve">
<style type="text/css">
	.st0{fill:#66FF00;}
</style>
<g>
	<path class="st0" d="M361-90c-259.8,0-470.4,219.4-470.4,490S101.2,890,361,890s470.4-219.4,470.4-490S620.8-90,361-90L361-90z
		 M361,847.4C123.8,847.4-68.5,647.1-68.5,400S123.8-47.4,361-47.4S790.5,152.9,790.5,400C790.5,647,598.2,847.4,361,847.4
		L361,847.4z M558.6,278.6c-9.8,0-17.7,8.2-17.7,18.4c0,1.1,0,92.7,0,95.3c-1.5,98.6-80.8,178.9-176.7,178.9
		c-96.3,0-175.5-80.6-176.7-179.6c0-2.7,0-93.7,0-94.6c0-10.2-7.9-18.4-17.7-18.4c-9.8,0-17.7,8.2-17.7,18.4c0,0.8,0,94.3,0,95
		c1.3,113,87,206,194.4,215.2c0,0.2,0,0.4,0,0.6v49.9h-80.3c-9.8,0-17.7,8.2-17.7,18.4s7.9,18.4,17.7,18.4h196
		c9.8,0,17.7-8.2,17.7-18.4s-7.9-18.4-17.7-18.4h-80.3v-49.9c0-0.2,0-0.4,0-0.6c107-9.3,192.6-101.8,194.4-214.3
		c0-1.1,0-94.8,0-95.9C576.2,286.8,568.3,278.6,558.6,278.6L558.6,278.6z M364.2,516.3c67.2,0,121.9-56.5,121.9-125.9v-159
		c0-69.4-54.7-125.9-121.9-125.9S242.3,162,242.3,231.4v159.1C242.3,459.8,297,516.3,364.2,516.3L364.2,516.3z M277.6,231.4
		c0-49.1,38.8-89.1,86.6-89.1c47.7,0,86.6,40,86.6,89.1v159.1c0,49.1-38.8,89.1-86.6,89.1c-47.7,0-86.6-39.9-86.6-89.1L277.6,231.4
		L277.6,231.4z"/>
</g>
</svg>
