<?xml version="1.0" encoding="utf-8"?>
<!-- Generator: Adobe Illustrator 19.0.0, SVG Export Plug-In . SVG Version: 6.00 Build 0)  -->
<svg version="1.1" id="Capa_1" xmlns="http://www.w3.org/2000/svg" xmlns:xlink="http://www.w3.org/1999/xlink" x="0px" y="0px"
	 viewBox="-257 17.5 765 766.5" style="enable-background:new -257 17.5 765 766.5;" xml:space="preserve">
<style type="text/css">
	.st0{fill:none;stroke:#CCFF00;stroke-width:40;stroke-miterlimit:10;}
	.st1{fill:#CCFF00;}
</style>
<circle class="st0" cx="125.5" cy="400.8" r="360"/>
<g>
	<path class="st1" d="M221.3,124.6c42.4,0,71.9,14,95.7,41c13.4,15.1,23.8,31.7,29.1,51.1c5,18.2,4.9,36.6-0.8,54.7
		c-5.5,17.8-14.3,33.4-29.1,45.5c-13.2,10.9-28.4,15.6-45,17.5c-8.5,1-16.9,0.7-25.3-1.2c-22.2-5-34-21.5-27.6-44.6
		c2.3-8.4,5.2-16.1,14-20c6.9-3.1,14-2.1,20.9-1.3c18.1,2,25-5.5,22-24.4c-4.1-26.2-20.7-40.5-47.5-40.9c-15-0.2-29.7,1.4-43.3,8
		c-14.9,7.3-24.6,18.1-24.3,38.4c0.2,14.4,6.4,27.2,10.7,40.5c3.3,10.1,6.1,20.2,8,30.6c2.3,12.7-2.5,23.4-8.9,33.7
		c-22.7,36.6-48.6,70.8-74,105.5c-24.4,33.2-50,65.5-75.9,97.7c-16.6,20.7-33.6,41.2-52.1,60.3c-7.1,7.3-13.9,14.9-21.8,21.4
		c-6.7,5.5-11.8,7.1-15.3,4c-3.2-2.9-2.5-9.2,1.8-15.9c8.8-13.6,17.4-27.3,26.4-40.8c13.3-19.9,24.9-40.7,37.8-60.8
		c26.8-42.1,51.8-85.3,76.8-128.4C84.4,378,94,359,103.2,339.9c6.7-13.9,5-26.6-0.8-39.9c-4.8-11.1-9.7-22.1-12.1-34.1
		c-3.2-16.3,0.6-31.5,6.9-46.1c8.5-19.5,20-37.3,33.6-53.7c9-10.9,18.9-20.7,31.3-27.8c7.1-4.1,14.9-6.1,22.7-8.1
		C198.9,126.7,213.1,124.6,221.3,124.6z"/>
	<path class="st1" d="M179.9,417c3.9-4.1,9.5-4.7,14.1-7.1c4.2-2.2,8.7-4,13.2-5.8c3-1.2,4.4-3.1,4.4-6.6c0.1-7.3,0.6-14.6,1.3-21.8
		c0.2-2.4-0.3-5,1.6-7.6c4,5.2,6,11.3,8.3,16.9c6.3,15.1,6,15,22.2,15.2c6.1,0.1,12.2,0.8,18.3,1.3c0.3,0,0.5,0.5,1,1.2
		c-8.6,3.8-17,8-25.7,11.2c-5.3,1.9-6.9,4.9-7,10.2c-0.2,9-1.1,17.9-1.7,26.8c-2.7,0.3-2.9-1.5-3.5-2.8c-3.5-7.9-7.2-15.7-10.2-23.8
		c-1.5-3.9-3.9-4.7-7.4-4.8c-8.1-0.3-16.1-0.7-24.2-1.2C183.1,418.3,181.4,418.8,179.9,417z"/>
	<path class="st1" d="M-39,205.1c6,7.1,9.1,15.3,12.1,23.4c2.1,5.7,4.8,7.8,10.8,7.8c8.9,0,17.8,1.2,26.7,1.8c0.1,0.5,0.2,1,0.3,1.5
		c-6.1,2.8-12.2,5.7-18.3,8.4c-3.3,1.5-6.7,2.9-10.1,4.2c-2.9,1.1-3,3.5-3.1,6.1c-0.6,9.9-1.4,19.8-2.2,31.1
		c-5.8-8.8-8.3-17.4-11.9-25.6c-2.3-5.1-4.9-8-11-7.9c-7.3,0.2-14.6-0.7-21.9-1c-1.6-0.1-3.6-0.1-4-1.6c-0.5-2,1.8-1.9,3.1-2.5
		c7.7-3.4,15.4-7,23.2-10.3c3.1-1.3,4.3-3.2,4.4-6.6C-40.4,224.4-39.6,214.7-39,205.1z"/>
	<path class="st1" d="M39.8,200.4c-4.1-5.8-6.2-11.4-8.2-16.9c-1.5-3.9-3.6-6-8-5.9c-4.8,0-9.6-0.6-14.4-1c-1.3-0.1-3,0.2-3.2-1.7
		c-0.1-1.5,1.5-1.5,2.5-2c4.6-2,9.2-3.9,13.7-6c3-1.4,4.6-3.4,4.7-7.1c0.1-6.2,1-12.3,1.7-19.9c5,6.3,6.6,12.5,9,18.1
		c1.6,3.7,3.5,4.8,7.2,5c6.2,0.2,12.5,0.9,18.7,1.4c0.1,0.5,0.2,1,0.3,1.5c-4.2,1.9-8.3,4.3-12.7,5.7c-6.8,2.2-10.1,6.2-9.8,13.4
		C41.5,189.8,41.4,194.6,39.8,200.4z"/>
	<path class="st1" d="M317.7,467.1c-2.7-5.9-5.6-11.7-8.2-17.6c-1.1-2.6-2.7-3.8-5.7-3.8c-5.4,0-10.7-0.6-16.1-1
		c-1.2-0.1-2.6-0.3-2.8-1.6c-0.2-1.4,1.2-1.7,2.2-2.2c4.9-2.2,9.7-4.7,14.7-6.6c3.3-1.3,4.2-3.5,4.3-6.6c0.2-5,0.6-10,1-15
		c0.1-1.3,0.2-3,1.9-3c1.3,0,1.5,1.6,1.9,2.6c0.6,1.6,1.4,3.2,1.7,4.9c2.8,13.4,12.9,14.7,23.9,14.6c1.8,0,4.5-0.7,4.8,1.8
		c0.2,1.9-2.5,2-4,2.7c-3.2,1.4-6.3,2.8-9.6,4c-5,2-7.4,5.5-7.3,11C320.5,456.6,320.2,462,317.7,467.1z"/>
	<path class="st1" d="M162.9,522.7c4.7-4.6,9.8-5.5,14.3-7.6c3.6-1.7,4.8-3.7,4.8-7.4c0-4.7,0.7-9.5,1.2-15.1
		c4.4,4.8,5.6,10.1,7.8,14.9c1.3,2.9,2.6,4.3,5.9,4.1c3.8-0.2,7.7,0.3,11.5,0.5c1.1,0.1,2.5,0.5,2.5,1.8c0,0.7-1.1,1.6-1.9,2
		c-2.2,1.1-4.5,2.5-6.9,3c-7.1,1.6-8.2,6.6-8.3,12.8c0,3.2,0.5,6.6-1.7,10c-3.9-4-4.9-9.2-6.9-13.8c-1.2-2.6-2.4-3.9-5.5-3.9
		C174.6,523.9,169.3,523.2,162.9,522.7z"/>
</g>
</svg>
